<?xml version="1.0" encoding="UTF-8" standalone="no"?>
<!DOCTYPE svg PUBLIC "-//W3C//DTD SVG 1.1//EN" "http://www.w3.org/Graphics/SVG/1.1/DTD/svg11.dtd">
<!-- Generated by Microsoft Visio, SVG Export forwarding-error-correction-fec.svg Page-5 -->
<svg xmlns="http://www.w3.org/2000/svg" xmlns:xlink="http://www.w3.org/1999/xlink" xmlns:ev="http://www.w3.org/2001/xml-events"
		xmlns:v="http://schemas.microsoft.com/visio/2003/SVGExtensions/" width="7.98228in" height="3.60236in"
		viewBox="0 0 574.724 259.37" xml:space="preserve" color-interpolation-filters="sRGB" class="st32">
	<v:documentProperties v:langID="1033" v:metric="true" v:viewMarkup="false">
		<v:userDefs>
			<v:ud v:nameU="msvNoAutoConnect" v:val="VT0(1):26"/>
		</v:userDefs>
	</v:documentProperties>

	<style type="text/css">
	<![CDATA[
		.st1 {fill:#f2f2f2}
		.st2 {stroke:#7f7f7f;stroke-linecap:round;stroke-linejoin:round;stroke-width:1}
		.st3 {marker-end:url(#mrkr4-15);stroke:#00b050;stroke-linecap:round;stroke-linejoin:round;stroke-opacity:0.7;stroke-width:8}
		.st4 {fill:#00b050;fill-opacity:0.7;stroke:#00b050;stroke-opacity:0.7;stroke-width:0.76045633525983}
		.st5 {fill:none;stroke:none;stroke-linecap:round;stroke-linejoin:round;stroke-width:0.75}
		.st6 {fill:#000000;font-family:Verdana;font-size:1.16666em;font-weight:bold}
		.st7 {font-size:1em}
		.st8 {fill:#6cffc5;stroke:#000000;stroke-linecap:round;stroke-linejoin:round;stroke-width:1}
		.st9 {fill:#000000;font-family:Verdana;font-size:1.16666em}
		.st10 {fill:#fee599;stroke:#000000;stroke-linecap:round;stroke-linejoin:round;stroke-width:1}
		.st11 {fill:#000000;font-family:Verdana;font-size:1.99999em}
		.st12 {fill:none}
		.st13 {stroke:#00b050;stroke-linecap:round;stroke-linejoin:round;stroke-opacity:0.7;stroke-width:8}
		.st14 {stroke:#ff0000;stroke-linecap:round;stroke-linejoin:round;stroke-opacity:0.7;stroke-width:3.5}
		.st15 {fill:#000000;font-family:Verdana;font-size:1.00001em;font-weight:bold}
		.st16 {font-size:1em;font-weight:normal}
		.st17 {stroke:#000000;stroke-linecap:round;stroke-linejoin:round;stroke-width:1.25}
		.st18 {font-size:1em;font-weight:bold}
		.st19 {fill:#ffffff;stroke:#126d99;stroke-linecap:round;stroke-linejoin:round;stroke-width:2.25}
		.st20 {marker-start:url(#mrkr4-123);stroke:#126d99;stroke-linecap:round;stroke-linejoin:round;stroke-width:3.5}
		.st21 {fill:#126d99;fill-opacity:1;stroke:#126d99;stroke-opacity:1;stroke-width:0.7085020242915}
		.st22 {marker-end:url(#mrkr4-129);stroke:#126d99;stroke-linecap:round;stroke-linejoin:round;stroke-width:3.5}
		.st23 {marker-end:url(#mrkr4-129);stroke:#126d99;stroke-width:3.5}
		.st24 {marker-start:url(#mrkr4-123);stroke:#126d99;stroke-width:3.5}
		.st25 {fill:#ffffff;stroke:#2f698c;stroke-linecap:round;stroke-linejoin:round;stroke-width:2.5}
		.st26 {stroke:#2f698c;stroke-linecap:round;stroke-linejoin:round;stroke-width:2.5}
		.st27 {fill:#ffffff;stroke:#2f698c;stroke-linecap:round;stroke-linejoin:round;stroke-width:2}
		.st28 {marker-end:url(#mrkr10-226);marker-start:url(#mrkr10-224);stroke:#7f7f7f;stroke-linecap:round;stroke-linejoin:round;stroke-width:6}
		.st29 {fill:#7f7f7f;fill-opacity:1;stroke:#7f7f7f;stroke-opacity:1;stroke-width:0.70422535211268}
		.st30 {fill:#f2f2f2;stroke:none;stroke-linecap:round;stroke-linejoin:round;stroke-width:0.75}
		.st31 {fill:#ff0000;font-family:Verdana;font-size:1.16666em;font-weight:bold}
		.st32 {fill:none;fill-rule:evenodd;font-size:12px;overflow:visible;stroke-linecap:square;stroke-miterlimit:3}
	]]>
	</style>

	<defs id="Markers">
		<g id="lend4">
			<path d="M 2 1 L 0 0 L 2 -1 L 2 1 " style="stroke:none"/>
		</g>
		<marker id="mrkr4-15" class="st4" v:arrowType="4" v:arrowSize="2" v:setback="2.63" refX="-2.6299997873207" orient="auto"
				markerUnits="strokeWidth" overflow="visible">
			<use xlink:href="#lend4" transform="scale(-1.3149998936603,-1.3149998936603) "/>
		</marker>
		<marker id="mrkr4-123" class="st21" v:arrowType="4" v:arrowSize="0" v:setback="2.72" refX="2.72" orient="auto"
				markerUnits="strokeWidth" overflow="visible">
			<use xlink:href="#lend4" transform="scale(1.4114285714286) "/>
		</marker>
		<marker id="mrkr4-129" class="st21" v:arrowType="4" v:arrowSize="0" v:setback="2.82286" refX="-2.8228571428571"
				orient="auto" markerUnits="strokeWidth" overflow="visible">
			<use xlink:href="#lend4" transform="scale(-1.4114285714286,-1.4114285714286) "/>
		</marker>
		<g id="lend10">
			<path
					d="M 0 0.75 C -0.414214 0.75 -0.75 0.414214 -0.75 0 -0.75 -0.414214 -0.414214 -0.75 0 -0.75 0.414214 -0.75 0.75 -0.414214 0.75 0 0.75 0.414214 0.414214 0.75 0 0.75 Z "
					style="stroke:none"/>
		</g>
		<marker id="mrkr10-224" class="st29" v:arrowType="10" v:arrowSize="2" v:setback="1.005" refX="1.005" orient="auto"
				markerUnits="strokeWidth" overflow="visible">
			<use xlink:href="#lend10" transform="scale(1.42) "/>
		</marker>
		<marker id="mrkr10-226" class="st29" v:arrowType="10" v:arrowSize="2" v:setback="1.065" refX="-1.065" orient="auto"
				markerUnits="strokeWidth" overflow="visible">
			<use xlink:href="#lend10" transform="scale(-1.42,-1.42) "/>
		</marker>
	</defs>
	<g v:mID="16" v:index="6" v:groupContext="foregroundPage">
		<title>Page-5</title>
		<v:pageProperties v:drawingScale="0.0393701" v:pageScale="0.0393701" v:drawingUnits="24" v:shadowOffsetX="9"
				v:shadowOffsetY="-9"/>
		<v:layer v:name="rect" v:index="0" v:snap="false" v:glue="false"/>
		<v:layer v:name="background_cloud" v:index="1" v:snap="false" v:glue="false"/>
		<g id="shape235-1" v:mID="235" v:groupContext="shape" transform="translate(161.008,-1.41732)">
			<title>Cloud</title>
			<v:userDefs>
				<v:ud v:nameU="visVersion" v:prompt="" v:val="VT0(15):26"/>
			</v:userDefs>
			<path d="M10.6 189.32 A17.0131 22.7385 0 0 1 18.76 145.65 A34.5006 46.1111 0 0 1 68.83 108.78 A39.6162 52.9483 0 0 1
						 111.72 100.58 A24.8429 33.2033 0 0 1 148.5 97.85 A28.2841 37.8026 0 0 1 193.46 111.5 A20.2239 27.029 0 0
						 1 209.79 149.74 A25.0499 33.4789 0 0 1 189.37 204.35 A31.6025 42.2363 0 0 1 144.43 231.65 A37.2621 49.8003
						 0 0 1 83.14 242.58 A47.2345 63.1282 0 0 1 30.01 231.65 A18.635 24.9062 0 0 1 10.6 189.32 Z" class="st1"/>
			<path d="M10.6 189.32 A17.0131 22.7385 0 0 1 18.76 145.65 A34.5006 46.1111 0 0 1 68.83 108.78 A39.6162 52.9483 0 0 1
						 111.72 100.58 A24.8429 33.2033 0 0 1 148.5 97.85 A28.2841 37.8026 0 0 1 193.46 111.5 A20.2239 27.029 0 0
						 1 209.79 149.74 A25.0499 33.4789 0 0 1 189.37 204.35 A31.6025 42.2363 0 0 1 144.43 231.65 A37.2621 49.8003
						 0 0 1 83.14 242.58 A47.2345 63.1282 0 0 1 30.01 231.65 A18.635 24.9062 0 0 1 10.6 189.32" class="st2"/>
			<path d="M21.82 190.69 A16.966 22.6757 0 0 1 10.6 189.32" class="st2"/>
			<path d="M80.05 235.75 A17.0399 22.7744 -180 0 0 83.14 242.58" class="st2"/>
			<path d="M145.96 223.46 A13.7553 18.3845 0 0 1 144.43 231.65" class="st2"/>
			<path d="M177.11 182.49 A14.4338 19.2913 0 0 1 189.37 204.35" class="st2"/>
			<path d="M203.67 157.93 A13.1774 17.612 -180 0 0 209.79 149.74" class="st2"/>
			<path d="M74.95 114.24 A20.3208 27.1585 -180 0 0 68.83 108.78" class="st2"/>
		</g>
		<g id="shape5-10" v:mID="5" v:groupContext="shape" transform="translate(159.794,-117.64)">
			<title>Sheet.5</title>
			<path d="M0 208.35 L0 259.37 L220.21 259.37 L221.69 259.37" class="st3"/>
		</g>
		<g id="shape6-16" v:mID="6" v:groupContext="shape" transform="translate(207.795,-24.0945)">
			<title>Sheet.6</title>
			<desc>Overlay fabric</desc>
			<v:userDefs/>
			<v:textBlock v:margins="rect(4,4,4,4)" v:tabSpace="42.5197"/>
			<v:textRect cx="48.1901" cy="238.183" width="96.39" height="42.3735"/>
			<rect x="0" y="216.997" width="96.38" height="42.3735" class="st5"/>
			<text x="17.94" y="233.98" class="st6" v:langID="1033"><v:paragraph v:horizAlign="1"/><v:tabList/>Overlay <v:newlineChar/><tspan
						x="25.67" dy="1.2em" class="st7">fabric</tspan></text>		</g>
		<g id="shape7-20" v:mID="7" v:groupContext="shape" transform="translate(117.463,-182.012)">
			<title>Square</title>
			<desc>4</desc>
			<v:userDefs>
				<v:ud v:nameU="visVersion" v:val="VT0(15):26"/>
			</v:userDefs>
			<v:textBlock v:margins="rect(4,4,4,4)" v:tabSpace="42.5197"/>
			<v:textRect cx="11.3386" cy="248.032" width="22.69" height="22.6772"/>
			<rect x="0" y="236.693" width="22.6772" height="22.6772" rx="1.41732" ry="1.41732" class="st8"/>
			<text x="6.89" y="252.23" class="st9" v:langID="1033"><v:paragraph v:horizAlign="1"/><v:tabList/>4</text>		</g>
		<g id="shape8-23" v:mID="8" v:groupContext="shape" transform="translate(142.787,-182.012)">
			<title>Square.24</title>
			<desc>3</desc>
			<v:userDefs>
				<v:ud v:nameU="visVersion" v:val="VT0(15):26"/>
			</v:userDefs>
			<v:textBlock v:margins="rect(4,4,4,4)" v:tabSpace="42.5197"/>
			<v:textRect cx="11.3386" cy="248.032" width="22.69" height="22.6772"/>
			<rect x="0" y="236.693" width="22.6772" height="22.6772" rx="1.41732" ry="1.41732" class="st8"/>
			<text x="6.89" y="252.23" class="st9" v:langID="1033"><v:paragraph v:horizAlign="1"/><v:tabList/>3</text>		</g>
		<g id="shape9-26" v:mID="9" v:groupContext="shape" transform="translate(168.11,-182.012)">
			<title>Square.25</title>
			<desc>2</desc>
			<v:userDefs>
				<v:ud v:nameU="visVersion" v:val="VT0(15):26"/>
			</v:userDefs>
			<v:textBlock v:margins="rect(4,4,4,4)" v:tabSpace="42.5197"/>
			<v:textRect cx="11.3386" cy="248.032" width="22.69" height="22.6772"/>
			<rect x="0" y="236.693" width="22.6772" height="22.6772" rx="1.41732" ry="1.41732" class="st8"/>
			<text x="6.89" y="252.23" class="st9" v:langID="1033"><v:paragraph v:horizAlign="1"/><v:tabList/>2</text>		</g>
		<g id="shape10-29" v:mID="10" v:groupContext="shape" transform="translate(193.434,-182.012)">
			<title>Square.26</title>
			<desc>1</desc>
			<v:userDefs>
				<v:ud v:nameU="visVersion" v:val="VT0(15):26"/>
			</v:userDefs>
			<v:textBlock v:margins="rect(4,4,4,4)" v:tabSpace="42.5197"/>
			<v:textRect cx="11.3386" cy="248.032" width="22.69" height="22.6772"/>
			<rect x="0" y="236.693" width="22.6772" height="22.6772" rx="1.41732" ry="1.41732" class="st8"/>
			<text x="6.89" y="252.23" class="st9" v:langID="1033"><v:paragraph v:horizAlign="1"/><v:tabList/>1</text>		</g>
		<g id="shape11-32" v:mID="11" v:groupContext="shape" transform="translate(92.1389,-182.012)">
			<title>Square.27</title>
			<desc>P</desc>
			<v:userDefs>
				<v:ud v:nameU="visVersion" v:val="VT0(15):26"/>
			</v:userDefs>
			<v:textBlock v:margins="rect(4,4,4,4)" v:tabSpace="42.5197"/>
			<v:textRect cx="11.3386" cy="248.032" width="22.69" height="22.6772"/>
			<rect x="0" y="236.693" width="22.6772" height="22.6772" rx="1.41732" ry="1.41732" class="st10"/>
			<text x="7.12" y="252.23" class="st9" v:langID="1033"><v:paragraph v:horizAlign="1"/><v:tabList/>P</text>		</g>
		<g id="shape12-35" v:mID="12" v:groupContext="shape" transform="translate(53.4951,-182.012)">
			<title>Square.28</title>
			<desc>1</desc>
			<v:userDefs>
				<v:ud v:nameU="visVersion" v:val="VT0(15):26"/>
			</v:userDefs>
			<v:textBlock v:margins="rect(4,4,4,4)" v:tabSpace="42.5197"/>
			<v:textRect cx="11.3386" cy="248.032" width="22.69" height="22.6772"/>
			<rect x="0" y="236.693" width="22.6772" height="22.6772" rx="1.41732" ry="1.41732" class="st8"/>
			<text x="6.89" y="252.23" class="st9" v:langID="1033"><v:paragraph v:horizAlign="1"/><v:tabList/>1</text>		</g>
		<g id="shape13-38" v:mID="13" v:groupContext="shape" transform="translate(27.9833,-182.012)">
			<title>Square.29</title>
			<desc>2</desc>
			<v:userDefs>
				<v:ud v:nameU="visVersion" v:val="VT0(15):26"/>
			</v:userDefs>
			<v:textBlock v:margins="rect(4,4,4,4)" v:tabSpace="42.5197"/>
			<v:textRect cx="11.3386" cy="248.032" width="22.69" height="22.6772"/>
			<rect x="0" y="236.693" width="22.6772" height="22.6772" rx="1.41732" ry="1.41732" class="st8"/>
			<text x="6.89" y="252.23" class="st9" v:langID="1033"><v:paragraph v:horizAlign="1"/><v:tabList/>2</text>		</g>
		<g id="shape14-41" v:mID="14" v:groupContext="shape" transform="translate(-5.94198,-182.012)">
			<title>Sheet.14</title>
			<desc>...</desc>
			<v:userDefs/>
			<v:textBlock v:margins="rect(4,4,4,4)" v:tabSpace="42.5197"/>
			<v:textRect cx="19.0886" cy="249.37" width="38.19" height="20"/>
			<rect x="0" y="239.37" width="38.1772" height="20" class="st5"/>
			<text x="5.99" y="256.57" class="st11" v:langID="1033"><v:paragraph v:horizAlign="1"/><v:tabList/>...</text>		</g>
		<g id="shape15-44" v:mID="15" v:groupContext="shape" transform="translate(91.7629,-172.093)">
			<title>Sheet.15</title>
			<path d="M0 259.37 L127.38 259.37 L0 259.37 Z" class="st12"/>
			<path d="M0 259.37 L127.38 259.37" class="st13"/>
		</g>
		<g id="shape16-47" v:mID="16" v:groupContext="shape" transform="translate(222.157,-106.299)">
			<title>Square.34</title>
			<desc>4</desc>
			<v:userDefs>
				<v:ud v:nameU="visVersion" v:val="VT0(15):26"/>
			</v:userDefs>
			<v:textBlock v:margins="rect(4,4,4,4)" v:tabSpace="42.5197"/>
			<v:textRect cx="11.3386" cy="248.032" width="22.69" height="22.6772"/>
			<rect x="0" y="236.693" width="22.6772" height="22.6772" rx="1.41732" ry="1.41732" class="st8"/>
			<text x="6.89" y="252.23" class="st9" v:langID="1033"><v:paragraph v:horizAlign="1"/><v:tabList/>4</text>		</g>
		<g id="shape17-50" v:mID="17" v:groupContext="shape" transform="translate(256.172,-106.299)">
			<title>Square.35</title>
			<desc>3</desc>
			<v:userDefs>
				<v:ud v:nameU="visVersion" v:val="VT0(15):26"/>
			</v:userDefs>
			<v:textBlock v:margins="rect(4,4,4,4)" v:tabSpace="42.5197"/>
			<v:textRect cx="11.3386" cy="248.032" width="22.69" height="22.6772"/>
			<rect x="0" y="236.693" width="22.6772" height="22.6772" rx="1.41732" ry="1.41732" class="st8"/>
			<text x="6.89" y="252.23" class="st9" v:langID="1033"><v:paragraph v:horizAlign="1"/><v:tabList/>3</text>		</g>
		<g id="shape18-53" v:mID="18" v:groupContext="shape" transform="translate(290.188,-106.299)">
			<title>Square.36</title>
			<desc>2</desc>
			<v:userDefs>
				<v:ud v:nameU="visVersion" v:val="VT0(15):26"/>
			</v:userDefs>
			<v:textBlock v:margins="rect(4,4,4,4)" v:tabSpace="42.5197"/>
			<v:textRect cx="11.3386" cy="248.032" width="22.69" height="22.6772"/>
			<rect x="0" y="236.693" width="22.6772" height="22.6772" rx="1.41732" ry="1.41732" class="st8"/>
			<text x="6.89" y="252.23" class="st9" v:langID="1033"><v:paragraph v:horizAlign="1"/><v:tabList/>2</text>		</g>
		<g id="shape19-56" v:mID="19" v:groupContext="shape" transform="translate(324.204,-106.299)">
			<title>Square.37</title>
			<desc>1</desc>
			<v:userDefs>
				<v:ud v:nameU="visVersion" v:val="VT0(15):26"/>
			</v:userDefs>
			<v:textBlock v:margins="rect(4,4,4,4)" v:tabSpace="42.5197"/>
			<v:textRect cx="11.3386" cy="248.032" width="22.69" height="22.6772"/>
			<rect x="0" y="236.693" width="22.6772" height="22.6772" rx="1.41732" ry="1.41732" class="st8"/>
			<text x="6.89" y="252.23" class="st9" v:langID="1033"><v:paragraph v:horizAlign="1"/><v:tabList/>1</text>		</g>
		<g id="shape20-59" v:mID="20" v:groupContext="shape" transform="translate(188.141,-106.299)">
			<title>Square.38</title>
			<desc>P</desc>
			<v:userDefs>
				<v:ud v:nameU="visVersion" v:val="VT0(15):26"/>
			</v:userDefs>
			<v:textBlock v:margins="rect(4,4,4,4)" v:tabSpace="42.5197"/>
			<v:textRect cx="11.3386" cy="248.032" width="22.69" height="22.6772"/>
			<rect x="0" y="236.693" width="22.6772" height="22.6772" rx="1.41732" ry="1.41732" class="st10"/>
			<text x="7.12" y="252.23" class="st9" v:langID="1033"><v:paragraph v:horizAlign="1"/><v:tabList/>P</text>		</g>
		<g id="shape21-62" v:mID="21" v:groupContext="shape" transform="translate(473.592,-53.0102) rotate(45)">
			<title>Sheet.21</title>
			<path d="M0 259.37 L32.07 259.37 L0 259.37 Z" class="st12"/>
			<path d="M0 259.37 L32.07 259.37" class="st14"/>
		</g>
		<g id="shape22-65" v:mID="22" v:groupContext="shape" transform="translate(106.784,-30.333) rotate(-45)">
			<title>Sheet.22</title>
			<path d="M0 259.37 L32.07 259.37 L0 259.37 Z" class="st12"/>
			<path d="M0 259.37 L32.07 259.37" class="st14"/>
		</g>
		<g id="shape23-68" v:mID="23" v:groupContext="shape" transform="translate(423.98,-182.012)">
			<title>Square.42</title>
			<desc>4</desc>
			<v:userDefs>
				<v:ud v:nameU="visVersion" v:val="VT0(15):26"/>
			</v:userDefs>
			<v:textBlock v:margins="rect(4,4,4,4)" v:tabSpace="42.5197"/>
			<v:textRect cx="11.3386" cy="248.032" width="22.69" height="22.6772"/>
			<rect x="0" y="236.693" width="22.6772" height="22.6772" rx="1.41732" ry="1.41732" class="st8"/>
			<text x="6.89" y="252.23" class="st9" v:langID="1033"><v:paragraph v:horizAlign="1"/><v:tabList/>4</text>		</g>
		<g id="shape24-71" v:mID="24" v:groupContext="shape" transform="translate(449.304,-182.012)">
			<title>Square.43</title>
			<desc>3</desc>
			<v:userDefs>
				<v:ud v:nameU="visVersion" v:val="VT0(15):26"/>
			</v:userDefs>
			<v:textBlock v:margins="rect(4,4,4,4)" v:tabSpace="42.5197"/>
			<v:textRect cx="11.3386" cy="248.032" width="22.69" height="22.6772"/>
			<rect x="0" y="236.693" width="22.6772" height="22.6772" rx="1.41732" ry="1.41732" class="st8"/>
			<text x="6.89" y="252.23" class="st9" v:langID="1033"><v:paragraph v:horizAlign="1"/><v:tabList/>3</text>		</g>
		<g id="shape25-74" v:mID="25" v:groupContext="shape" transform="translate(499.952,-182.012)">
			<title>Square.45</title>
			<desc>1</desc>
			<v:userDefs>
				<v:ud v:nameU="visVersion" v:val="VT0(15):26"/>
			</v:userDefs>
			<v:textBlock v:margins="rect(4,4,4,4)" v:tabSpace="42.5197"/>
			<v:textRect cx="11.3386" cy="248.032" width="22.69" height="22.6772"/>
			<rect x="0" y="236.693" width="22.6772" height="22.6772" rx="1.41732" ry="1.41732" class="st8"/>
			<text x="6.89" y="252.23" class="st9" v:langID="1033"><v:paragraph v:horizAlign="1"/><v:tabList/>1</text>		</g>
		<g id="shape26-77" v:mID="26" v:groupContext="shape" transform="translate(474.628,-182.012)">
			<title>Square.46</title>
			<desc>P</desc>
			<v:userDefs>
				<v:ud v:nameU="visVersion" v:val="VT0(15):26"/>
			</v:userDefs>
			<v:textBlock v:margins="rect(4,4,4,4)" v:tabSpace="42.5197"/>
			<v:textRect cx="11.3386" cy="248.032" width="22.69" height="22.6772"/>
			<rect x="0" y="236.693" width="22.6772" height="22.6772" rx="1.41732" ry="1.41732" class="st10"/>
			<text x="7.12" y="252.23" class="st9" v:langID="1033"><v:paragraph v:horizAlign="1"/><v:tabList/>P</text>		</g>
		<g id="shape27-80" v:mID="27" v:groupContext="shape" transform="translate(407.353,-172.093)">
			<title>Sheet.27</title>
			<path d="M0 259.37 L145.5 259.37 L145.5 259.37" class="st3"/>
		</g>
		<g id="shape28-85" v:mID="28" v:groupContext="shape" transform="translate(175.353,129.154) rotate(-90)">
			<title>Sheet.28</title>
			<path d="M0 259.37 L39.69 259.37 L0 259.37 Z" class="st12"/>
			<path d="M0 259.37 L39.69 259.37" class="st13"/>
		</g>
		<g id="shape30-88" v:mID="30" v:groupContext="shape" transform="translate(84.4879,-24.0945)">
			<title>Sheet.30</title>
			<desc>vEdge</desc>
			<v:userDefs/>
			<v:textBlock v:margins="rect(4,4,4,4)" v:tabSpace="42.5197" v:verticalAlign="0"/>
			<v:textRect cx="35.4331" cy="241.323" width="70.88" height="36.0944"/>
			<rect x="0" y="223.276" width="70.8661" height="36.0944" class="st5"/>
			<text x="7.91" y="238.08" class="st15" v:langID="1033"><v:paragraph v:horizAlign="1"/><v:tabList/>vEdge-6<v:newlineChar/><tspan
						x="9.71" dy="1.2em" class="st16">Site</tspan><tspan class="st16">-</tspan><tspan class="st16">id 6</tspan></text>		</g>
		<g id="shape31-94" v:mID="31" v:groupContext="shape" transform="translate(399.143,-37.5117)">
			<title>Sheet.31</title>
			<desc>vEdge</desc>
			<v:userDefs/>
			<v:textBlock v:margins="rect(4,4,4,4)" v:tabSpace="42.5197" v:verticalAlign="0"/>
			<v:textRect cx="35.4331" cy="248.032" width="70.88" height="22.6772"/>
			<rect x="0" y="236.693" width="70.8661" height="22.6772" class="st5"/>
			<text x="7.91" y="251.49" class="st15" v:langID="1033"><v:paragraph v:horizAlign="1"/><v:tabList/>vEdge-1<v:newlineChar/><tspan
						x="9.71" dy="1.35em" class="st16">Site</tspan><tspan class="st16">-</tspan><tspan class="st16">id 1</tspan></text>		</g>
		<g id="shape32-100" v:mID="32" v:groupContext="shape" transform="translate(91.7629,-208.628)">
			<title>Bracket</title>
			<v:userDefs>
				<v:ud v:nameU="visVersion" v:val="VT0(15):26"/>
			</v:userDefs>
			<path d="M0 259.37 A4.01075 4.01075 0 0 1 3.54 255.83 L59.93 255.83 A4.01075 4.01075 -180 0 0 63.47 252.29 A4.01075 4.01075
						 -180 0 0 67.02 255.83 L121.18 255.83 A4.01075 4.01075 0 0 1 124.72 259.37 L0 259.37 Z" class="st12"/>
			<path d="M0 259.37 A4.01075 4.01075 0 0 1 3.54 255.83 L59.93 255.83 A4.01075 4.01075 -180 0 0 63.47 252.29 A4.01075 4.01075
						 -180 0 0 67.02 255.83 L121.18 255.83 A4.01075 4.01075 0 0 1 124.72 259.37" class="st17"/>
		</g>
		<g id="shape33-103" v:mID="33" v:groupContext="shape" transform="translate(426.251,-208.628)">
			<title>Bracket.55</title>
			<v:userDefs>
				<v:ud v:nameU="visVersion" v:val="VT0(15):26"/>
			</v:userDefs>
			<path d="M0 259.37 A4.01075 4.01075 0 0 1 3.54 255.83 L45.5 255.83 A4.01075 4.01075 -180 0 0 49.05 252.29 A4.01075 4.01075
						 -180 0 0 52.59 255.83 L92.83 255.83 A4.01075 4.01075 0 0 1 96.38 259.37 L0 259.37 Z" class="st12"/>
			<path d="M0 259.37 A4.01075 4.01075 0 0 1 3.54 255.83 L45.5 255.83 A4.01075 4.01075 -180 0 0 49.05 252.29 A4.01075 4.01075
						 -180 0 0 52.59 255.83 L92.83 255.83 A4.01075 4.01075 0 0 1 96.38 259.37" class="st17"/>
		</g>
		<g id="shape34-106" v:mID="34" v:groupContext="shape" transform="translate(42.3444,-219.965)">
			<title>Sheet.34</title>
			<desc>For every block of 4 packets, one parity packet is inserted</desc>
			<v:userDefs/>
			<v:textBlock v:margins="rect(4,4,4,4)" v:tabSpace="42.5197"/>
			<v:textRect cx="117.45" cy="239.528" width="234.91" height="39.685"/>
			<rect x="0" y="219.685" width="234.9" height="39.685" class="st5"/>
			<text x="15.32" y="235.33" class="st9" v:langID="1033"><v:paragraph v:horizAlign="1"/><v:tabList/>For every block of 4 packets, <tspan
						x="11.4" dy="1.2em" class="st7">one </tspan><tspan class="st18">parity packet</tspan> is inserted</text>		</g>
		<g id="shape35-111" v:mID="35" v:groupContext="shape" transform="translate(386.755,-219.647)">
			<title>Sheet.35</title>
			<desc>One lost packet out of the four can be reconstructed</desc>
			<v:userDefs/>
			<v:textBlock v:margins="rect(4,4,4,4)" v:tabSpace="42.5197"/>
			<v:textRect cx="87.6865" cy="239.528" width="175.38" height="39.685"/>
			<rect x="0" y="219.685" width="175.372" height="39.685" class="st5"/>
			<text x="7.06" y="235.33" class="st9" v:langID="1033"><v:paragraph v:horizAlign="1"/><v:tabList/>One lost packet can be <tspan
						x="32.99" dy="1.2em" class="st18">reconstructed</tspan></text>		</g>
		<g id="group75-115" transform="translate(91.7629,-60.9442)" v:mID="75" v:groupContext="group">
			<title>vEdge-light</title>
			<g id="shape76-116" v:mID="76" v:groupContext="shape" v:layerMember="0">
				<title>Square</title>
				<v:userDefs>
					<v:ud v:nameU="visVersion" v:val="VT0(15):26"/>
				</v:userDefs>
				<rect x="0" y="202.677" width="56.6929" height="56.6929" rx="8.50394" ry="8.50394" class="st19"/>
			</g>
			<g id="shape77-118" v:mID="77" v:groupContext="shape" transform="translate(191.874,27.4306) rotate(45)">
				<title>Sheet.77</title>
				<path d="M9.52 259.37 L9.88 259.37 L24.57 259.37" class="st20"/>
			</g>
			<g id="shape78-124" v:mID="78" v:groupContext="shape" transform="translate(215.984,51.5413) rotate(45)">
				<title>Sheet.78</title>
				<path d="M0 259.37 L11.87 259.37" class="st22"/>
			</g>
			<g id="shape79-130" v:mID="79" v:groupContext="shape" transform="translate(-169.847,62.8252) rotate(-43.8309)">
				<title>Sheet.79</title>
				<path d="M0 259.37 L12.7 259.37" class="st23"/>
			</g>
			<g id="shape80-135" v:mID="80" v:groupContext="shape" transform="translate(-150.82,45.6766) rotate(-45)">
				<title>Sheet.80</title>
				<path d="M9.52 259.37 L9.88 259.37 L22.5 259.37" class="st24"/>
			</g>
		</g>
		<g id="group81-140" transform="translate(406.134,-60.9442)" v:mID="81" v:groupContext="group">
			<title>vEdge-light.7</title>
			<g id="shape82-141" v:mID="82" v:groupContext="shape" v:layerMember="0">
				<title>Square</title>
				<v:userDefs>
					<v:ud v:nameU="visVersion" v:val="VT0(15):26"/>
				</v:userDefs>
				<rect x="0" y="202.677" width="56.6929" height="56.6929" rx="8.50394" ry="8.50394" class="st19"/>
			</g>
			<g id="shape83-143" v:mID="83" v:groupContext="shape" transform="translate(191.874,27.4306) rotate(45)">
				<title>Sheet.83</title>
				<path d="M9.52 259.37 L9.88 259.37 L24.57 259.37" class="st20"/>
			</g>
			<g id="shape84-148" v:mID="84" v:groupContext="shape" transform="translate(215.984,51.5413) rotate(45)">
				<title>Sheet.84</title>
				<path d="M0 259.37 L11.87 259.37" class="st22"/>
			</g>
			<g id="shape85-153" v:mID="85" v:groupContext="shape" transform="translate(-169.847,62.8252) rotate(-43.8309)">
				<title>Sheet.85</title>
				<path d="M0 259.37 L12.7 259.37" class="st23"/>
			</g>
			<g id="shape86-158" v:mID="86" v:groupContext="shape" transform="translate(-150.82,45.6766) rotate(-45)">
				<title>Sheet.86</title>
				<path d="M9.52 259.37 L9.88 259.37 L22.5 259.37" class="st24"/>
			</g>
		</g>
		<g id="group49-163" transform="translate(12.3939,-58.1075)" v:mID="49" v:groupContext="group">
			<title>Sheet.49</title>
			<g id="shape50-164" v:mID="50" v:groupContext="shape" transform="translate(9.92,-0.005)">
				<title>Round Same Side Corner Rectangle</title>
				<v:userDefs>
					<v:ud v:nameU="CTypeTopLeftSnip" v:prompt="" v:val="VT0(0):5"/>
					<v:ud v:nameU="CTypeTopRightSnip" v:prompt="" v:val="VT0(0):5"/>
					<v:ud v:nameU="CTypeBotLeftSnip" v:prompt="" v:val="VT0(1):5"/>
					<v:ud v:nameU="CTypeBotRightSnip" v:prompt="" v:val="VT0(0):5"/>
					<v:ud v:nameU="CornerLockHoriz" v:prompt="" v:val="VT0(1):5"/>
					<v:ud v:nameU="CornerLockVert" v:prompt="" v:val="VT0(0):5"/>
					<v:ud v:nameU="CornerLockDiag" v:prompt="" v:val="VT0(0):5"/>
					<v:ud v:nameU="TopLeftOffset" v:prompt="" v:val="VT0(0):26"/>
					<v:ud v:nameU="TopRightOffset" v:prompt="" v:val="VT0(0):26"/>
					<v:ud v:nameU="BotLeftOffset" v:prompt="" v:val="VT0(0):24"/>
					<v:ud v:nameU="BotRightOffset" v:prompt="" v:val="VT0(0):24"/>
					<v:ud v:nameU="visVersion" v:prompt="" v:val="VT0(15):26"/>
				</v:userDefs>
				<path d="M0 259.37 L45.35 259.37 L45.35 178.87 A4.53536 4.53536 -180 0 0 40.82 174.33 L4.54 174.33 A4.53536 4.53536
							 -180 0 0 0 178.87 L0 259.37 Z" class="st25"/>
			</g>
			<g id="shape51-166" v:mID="51" v:groupContext="shape" transform="translate(9.92,518.74) rotate(180)">
				<title>Sheet.51</title>
				<path d="M0 259.37 L9.92 259.37 L0 259.37 Z" class="st12"/>
				<path d="M0 259.37 L9.92 259.37" class="st26"/>
			</g>
			<g id="shape52-169" v:mID="52" v:groupContext="shape" transform="translate(55.2744,-0.005)">
				<title>Sheet.52</title>
				<path d="M0 259.37 L11.34 259.37 L0 259.37 Z" class="st12"/>
				<path d="M0 259.37 L11.34 259.37" class="st26"/>
			</g>
			<g id="group53-172" transform="translate(18.6118,-14.176)" v:mID="53" v:groupContext="group">
				<title>Sheet.53</title>
				<g id="shape54-173" v:mID="54" v:groupContext="shape" transform="translate(1.57874E-13,-42.5197)">
					<title>Rectangle.66</title>
					<v:userDefs>
						<v:ud v:nameU="visVersion" v:val="VT0(15):26"/>
					</v:userDefs>
					<rect x="0" y="245.197" width="27.9707" height="14.1732" class="st27"/>
				</g>
				<g id="shape55-175" v:mID="55" v:groupContext="shape" transform="translate(1.57874E-13,-28.3465)">
					<title>Rectangle.67</title>
					<v:userDefs>
						<v:ud v:nameU="visVersion" v:val="VT0(15):26"/>
					</v:userDefs>
					<rect x="0" y="245.197" width="27.9707" height="14.1732" class="st27"/>
				</g>
				<g id="shape56-177" v:mID="56" v:groupContext="shape" transform="translate(1.57874E-13,-14.1732)">
					<title>Rectangle.68</title>
					<v:userDefs>
						<v:ud v:nameU="visVersion" v:val="VT0(15):26"/>
					</v:userDefs>
					<rect x="0" y="245.197" width="27.9707" height="14.1732" class="st27"/>
				</g>
				<g id="shape57-179" v:mID="57" v:groupContext="shape">
					<title>Rectangle.69</title>
					<v:userDefs>
						<v:ud v:nameU="visVersion" v:val="VT0(15):26"/>
					</v:userDefs>
					<rect x="0" y="245.197" width="27.9707" height="14.1732" class="st27"/>
				</g>
			</g>
		</g>
		<g id="group58-181" transform="translate(474.088,-55.2728)" v:mID="58" v:groupContext="group">
			<title>Sheet.58</title>
			<g id="shape59-182" v:mID="59" v:groupContext="shape" transform="translate(9.92,-0.005)">
				<title>Round Same Side Corner Rectangle.74</title>
				<v:userDefs>
					<v:ud v:nameU="CTypeTopLeftSnip" v:prompt="" v:val="VT0(0):5"/>
					<v:ud v:nameU="CTypeTopRightSnip" v:prompt="" v:val="VT0(0):5"/>
					<v:ud v:nameU="CTypeBotLeftSnip" v:prompt="" v:val="VT0(1):5"/>
					<v:ud v:nameU="CTypeBotRightSnip" v:prompt="" v:val="VT0(0):5"/>
					<v:ud v:nameU="CornerLockHoriz" v:prompt="" v:val="VT0(1):5"/>
					<v:ud v:nameU="CornerLockVert" v:prompt="" v:val="VT0(0):5"/>
					<v:ud v:nameU="CornerLockDiag" v:prompt="" v:val="VT0(0):5"/>
					<v:ud v:nameU="TopLeftOffset" v:prompt="" v:val="VT0(0):26"/>
					<v:ud v:nameU="TopRightOffset" v:prompt="" v:val="VT0(0):26"/>
					<v:ud v:nameU="BotLeftOffset" v:prompt="" v:val="VT0(0):24"/>
					<v:ud v:nameU="BotRightOffset" v:prompt="" v:val="VT0(0):24"/>
					<v:ud v:nameU="visVersion" v:prompt="" v:val="VT0(15):26"/>
				</v:userDefs>
				<path d="M0 259.37 L45.35 259.37 L45.35 178.87 A4.53536 4.53536 -180 0 0 40.82 174.33 L4.54 174.33 A4.53536 4.53536
							 -180 0 0 -0 178.87 L0 259.37 Z" class="st25"/>
			</g>
			<g id="shape60-184" v:mID="60" v:groupContext="shape" transform="translate(9.92,518.74) rotate(180)">
				<title>Sheet.60</title>
				<path d="M0 259.37 L9.92 259.37 L0 259.37 Z" class="st12"/>
				<path d="M0 259.37 L9.92 259.37" class="st26"/>
			</g>
			<g id="group61-187" transform="translate(18.6118,-14.176)" v:mID="61" v:groupContext="group">
				<title>Sheet.61</title>
				<g id="shape62-188" v:mID="62" v:groupContext="shape" transform="translate(5.9952E-15,-42.5197)">
					<title>Rectangle.66</title>
					<v:userDefs>
						<v:ud v:nameU="visVersion" v:val="VT0(15):26"/>
					</v:userDefs>
					<rect x="0" y="245.197" width="27.9707" height="14.1732" class="st27"/>
				</g>
				<g id="shape63-190" v:mID="63" v:groupContext="shape" transform="translate(5.9952E-15,-28.3465)">
					<title>Rectangle.67</title>
					<v:userDefs>
						<v:ud v:nameU="visVersion" v:val="VT0(15):26"/>
					</v:userDefs>
					<rect x="0" y="245.197" width="27.9707" height="14.1732" class="st27"/>
				</g>
				<g id="shape64-192" v:mID="64" v:groupContext="shape" transform="translate(5.9952E-15,-14.1732)">
					<title>Rectangle.68</title>
					<v:userDefs>
						<v:ud v:nameU="visVersion" v:val="VT0(15):26"/>
					</v:userDefs>
					<rect x="0" y="245.197" width="27.9707" height="14.1732" class="st27"/>
				</g>
				<g id="shape65-194" v:mID="65" v:groupContext="shape">
					<title>Rectangle.69</title>
					<v:userDefs>
						<v:ud v:nameU="visVersion" v:val="VT0(15):26"/>
					</v:userDefs>
					<rect x="0" y="245.197" width="27.9707" height="14.1732" class="st27"/>
				</g>
			</g>
			<g id="shape66-196" v:mID="66" v:groupContext="shape" transform="translate(55.2712,-0.005)">
				<title>Round Same Side Corner Rectangle</title>
				<v:userDefs>
					<v:ud v:nameU="CTypeTopLeftSnip" v:prompt="" v:val="VT0(0):5"/>
					<v:ud v:nameU="CTypeTopRightSnip" v:prompt="" v:val="VT0(0):5"/>
					<v:ud v:nameU="CTypeBotLeftSnip" v:prompt="" v:val="VT0(1):5"/>
					<v:ud v:nameU="CTypeBotRightSnip" v:prompt="" v:val="VT0(0):5"/>
					<v:ud v:nameU="CornerLockHoriz" v:prompt="" v:val="VT0(1):5"/>
					<v:ud v:nameU="CornerLockVert" v:prompt="" v:val="VT0(0):5"/>
					<v:ud v:nameU="CornerLockDiag" v:prompt="" v:val="VT0(0):5"/>
					<v:ud v:nameU="TopLeftOffset" v:prompt="" v:val="VT0(0):26"/>
					<v:ud v:nameU="TopRightOffset" v:prompt="" v:val="VT0(0):26"/>
					<v:ud v:nameU="BotLeftOffset" v:prompt="" v:val="VT0(0):24"/>
					<v:ud v:nameU="BotRightOffset" v:prompt="" v:val="VT0(0):24"/>
					<v:ud v:nameU="visVersion" v:prompt="" v:val="VT0(15):26"/>
				</v:userDefs>
				<path d="M0 259.37 L26.65 259.37 L26.65 212.08 A2.66452 2.66452 -180 0 0 23.98 209.41 L2.66 209.41 A2.66452 2.66452
							 -180 0 0 0 212.08 L0 259.37 Z" class="st25"/>
			</g>
			<g id="shape67-198" v:mID="67" v:groupContext="shape" transform="translate(81.9169,-0.005)">
				<title>Sheet.67</title>
				<path d="M0 259.37 L6.66 259.37 L0 259.37 Z" class="st12"/>
				<path d="M0 259.37 L6.66 259.37" class="st26"/>
			</g>
			<g id="group68-201" transform="translate(60.3776,-14.1763)" v:mID="68" v:groupContext="group">
				<title>Sheet.68</title>
				<g id="shape69-202" v:mID="69" v:groupContext="shape" transform="translate(-1.43885E-13,-22.3228)">
					<title>Rectangle.66</title>
					<v:userDefs>
						<v:ud v:nameU="visVersion" v:val="VT0(15):26"/>
					</v:userDefs>
					<rect x="0" y="251.929" width="16.4328" height="7.44094" class="st27"/>
				</g>
				<g id="shape70-204" v:mID="70" v:groupContext="shape" transform="translate(-1.43885E-13,-14.8819)">
					<title>Rectangle.67</title>
					<v:userDefs>
						<v:ud v:nameU="visVersion" v:val="VT0(15):26"/>
					</v:userDefs>
					<rect x="0" y="251.929" width="16.4328" height="7.44094" class="st27"/>
				</g>
				<g id="shape71-206" v:mID="71" v:groupContext="shape" transform="translate(-1.43885E-13,-7.44094)">
					<title>Rectangle.68</title>
					<v:userDefs>
						<v:ud v:nameU="visVersion" v:val="VT0(15):26"/>
					</v:userDefs>
					<rect x="0" y="251.929" width="16.4328" height="7.44094" class="st27"/>
				</g>
				<g id="shape72-208" v:mID="72" v:groupContext="shape">
					<title>Rectangle.69</title>
					<v:userDefs>
						<v:ud v:nameU="visVersion" v:val="VT0(15):26"/>
					</v:userDefs>
					<rect x="0" y="251.929" width="16.4328" height="7.44094" class="st27"/>
				</g>
			</g>
		</g>
		<g id="shape73-210" v:mID="73" v:groupContext="shape" transform="translate(8.14066,-15.5907)">
			<title>Sheet.73</title>
			<desc>Sender Site</desc>
			<v:userDefs/>
			<v:textBlock v:margins="rect(4,4,4,4)" v:tabSpace="42.5197" v:verticalAlign="0"/>
			<v:textRect cx="35.4331" cy="239.528" width="70.88" height="39.685"/>
			<rect x="0" y="219.685" width="70.8661" height="39.685" class="st5"/>
			<text x="10.53" y="236.29" class="st9" v:langID="1033"><v:paragraph v:horizAlign="1"/><v:tabList/>Sender <v:newlineChar/><tspan
						x="21.8" dy="1.2em" class="st7">Site</tspan></text>		</g>
		<g id="shape74-214" v:mID="74" v:groupContext="shape" transform="translate(482.944,-12.7561)">
			<title>Sheet.74</title>
			<desc>Receiver Site</desc>
			<v:userDefs/>
			<v:textBlock v:margins="rect(4,4,4,4)" v:tabSpace="42.5197" v:verticalAlign="0"/>
			<v:textRect cx="35.4331" cy="239.528" width="70.88" height="39.685"/>
			<rect x="0" y="219.685" width="70.8661" height="39.685" class="st5"/>
			<text x="5.36" y="236.29" class="st9" v:langID="1033"><v:paragraph v:horizAlign="1"/><v:tabList/>Receiver <v:newlineChar/><tspan
						x="21.8" dy="1.2em" class="st7">Site</tspan></text>		</g>
		<g id="shape236-218" v:mID="236" v:groupContext="shape" transform="translate(148.819,-91.4164)">
			<title>Sheet.236</title>
			<path d="M6.03 259.37 L6.39 259.37 L251.24 259.37" class="st28"/>
		</g>
		<g id="shape36-227" v:mID="36" v:groupContext="shape" transform="translate(216.486,-80.7876)">
			<title>Sheet.36</title>
			<desc>IPsec tunnel</desc>
			<v:userDefs/>
			<v:textBlock v:margins="rect(4,4,4,4)" v:tabSpace="42.5197"/>
			<v:textRect cx="54.7494" cy="249.37" width="109.51" height="20"/>
			<rect x="0" y="239.37" width="109.499" height="20" class="st30"/>
			<text x="11.52" y="253.57" class="st9" v:langID="1033"><v:paragraph v:horizAlign="1"/><v:tabList/>IPsec tunnel</text>		</g>
		<g id="shape237-230" v:mID="237" v:groupContext="shape" transform="translate(273.449,-128.819)">
			<title>Sheet.237</title>
			<desc>For every block of 4 packets, one parity packet is inserted</desc>
			<v:userDefs/>
			<v:textBlock v:margins="rect(4,4,4,4)" v:tabSpace="42.5197"/>
			<v:textRect cx="28.3465" cy="249.37" width="56.7" height="20"/>
			<rect x="0" y="239.37" width="56.6929" height="20" class="st5"/>
			<text x="11.74" y="253.57" class="st31" v:langID="1033"><v:paragraph v:horizAlign="1"/><v:tabList/>Lost</text>		</g>
	</g>
</svg>
